{
  "asset": {
    "generator": "BabylonJS",
    "version": "2.0"
  },
  "buffers": [
    {
      "byteLength": 152,
      "uri": "test.bin"
    }
  ],
  "nodes": [
    {
      "name": "plane",
      "mesh": 0
    }
  ],
  "meshes": [
    {
      "primitives": [
        {
          "attributes": {
            "POSITION": 0,
            "NORMAL": 1
          },
          "indices": 3,
          "material": 0
        }
      ]
    }
  ],
  "scenes": [
    {
      "nodes": [
        0
      ]
    }
  ],
  "scene": 0,
  "bufferViews": [
    {
      "buffer": 0,
      "byteLength": 48,
      "name": "position - plane",
      "byteStride": 12
    },
    {
      "buffer": 0,
      "byteLength": 48,
      "byteOffset": 48,
      "name": "normal - plane",
      "byteStride": 12
    },
    {
      "buffer": 0,
      "byteLength": 32,
      "byteOffset": 96,
      "name": "uv - plane",
      "byteStride": 8
    },
    {
      "buffer": 0,
      "byteLength": 24,
      "byteOffset": 128,
      "name": "Indices - plane"
    }
  ],
  "accessors": [
    {
      "name": "position - plane",
      "bufferView": 0,
      "componentType": 5126,
      "count": 4,
      "type": "VEC3",
      "min": [
        -60,
        -60,
        0
      ],
      "max": [
        60,
        60,
        0
      ]
    },
    {
      "name": "normal - plane",
      "bufferView": 1,
      "componentType": 5126,
      "count": 4,
      "type": "VEC3"
    },
    {
      "name": "uv - plane",
      "bufferView": 2,
      "componentType": 5126,
      "count": 4,
      "type": "VEC2"
    },
    {
      "name": "indices - plane",
      "bufferView": 3,
      "componentType": 5125,
      "count": 6,
      "type": "SCALAR"
    }
  ],
  "materials": [
    {
      "name": "metalRoughMat",
      "emissiveFactor": [
        0,
        0,
        0
      ],
      "alphaMode": "BLEND",
      "alphaCutoff": 0.8,
      "pbrMetallicRoughness": {
        "baseColorFactor": [
          1,
          1,
          1,
          1
        ]
      }
    },
    {
      "name": "default material",
      "pbrMetallicRoughness": {
        "baseColorFactor": [
          0.5,
          0.5,
          0.5,
          1
        ],
        "metallicFactor": 0,
        "roughnessFactor": 0.3288090062081349
      }
    }
  ]
}